<svg width="128" height="128" viewBox="0 0 128 128" fill="none" xmlns="http://www.w3.org/2000/svg">
<path fill-rule="evenodd" clip-rule="evenodd" d="M8.72997 10.9426C7.49794 13.4604 6.80636 16.2908 6.80636 19.2828V95.7613C6.80636 106.255 15.3129 114.761 25.8063 114.761H102.337C112.83 114.761 121.337 106.255 121.337 95.7613V19.2828C121.337 16.2909 120.645 13.4604 119.413 10.9426C122.272 14.268 124 18.5938 124 23.3233V105.189C124 115.682 115.493 124.189 105 124.189H23.1429C12.6494 124.189 4.14286 115.682 4.14286 105.189V23.3232C4.14286 18.5938 5.87087 14.2679 8.72997 10.9426Z" fill="#999999" fill-opacity="0.45"/>
<rect x="25.4508" y="3" width="77.2413" height="77.2413" rx="9" stroke="#FF7A59" stroke-width="4"/>
<rect x="6.80635" y="3" width="114.53" height="113.198" rx="19" fill="#FF7A59" fill-opacity="0.2" stroke="#FF7A59" stroke-width="4"/>
<line x1="100.664" y1="78.8906" x2="119.309" y2="106.857" stroke="#FF7A59" stroke-width="4"/>
<line y1="-2" x2="33.6118" y2="-2" transform="matrix(-0.5547 0.83205 0.83205 0.5547 30.6444 80)" stroke="#FF7A59" stroke-width="4"/>
<path d="M78.854 32.3827V25.5783C79.7481 25.1573 80.5053 24.4894 81.0376 23.6524C81.57 22.8153 81.8557 21.8433 81.8616 20.8492V20.689C81.8578 19.2994 81.3083 17.9677 80.3329 16.9849C79.3575 16.0021 78.0356 15.4479 76.6558 15.4435H76.4968C75.1175 15.4479 73.7959 16.0017 72.8206 16.984C71.8453 17.9664 71.2954 19.2974 71.291 20.6866V20.8468C71.2954 21.8351 71.5766 22.8021 72.1024 23.6366C72.6281 24.4711 73.3771 25.1391 74.263 25.564L74.2939 25.5783V32.397C71.7108 32.7945 69.2788 33.8753 67.2461 35.5291L67.2745 35.5051L48.6923 20.9329C49.0461 19.598 48.9292 18.1808 48.3616 16.923C47.794 15.6651 46.8107 14.6446 45.5796 14.0352C44.3484 13.4259 42.9454 13.2655 41.61 13.5815C40.2745 13.8974 39.0892 14.6701 38.2562 15.7678C37.4231 16.8656 36.9939 18.2203 37.0416 19.6011C37.0894 20.9819 37.6112 22.3033 38.5181 23.34C39.425 24.3766 40.6608 25.0644 42.0149 25.2859C43.3689 25.5075 44.7574 25.2492 45.9435 24.555L45.915 24.5694L64.1862 38.893C62.571 41.332 61.7132 44.2001 61.7222 47.1319C61.7222 50.3428 62.7311 53.3194 64.445 55.7557L64.4141 55.7079L58.8546 61.3096C58.4096 61.1649 57.9455 61.0884 57.4778 61.0825H57.4731C56.5186 61.0825 55.5855 61.3676 54.7919 61.9017C53.9983 62.4358 53.3797 63.1949 53.0145 64.083C52.6492 64.9712 52.5536 65.9485 52.7398 66.8914C52.9261 67.8342 53.3857 68.7003 54.0606 69.3801C54.7355 70.0598 55.5954 70.5228 56.5316 70.7103C57.4677 70.8979 58.4381 70.8016 59.3199 70.4337C60.2017 70.0658 60.9554 69.4428 61.4857 68.6435C62.016 67.8442 62.299 66.9044 62.299 65.9431C62.2926 65.4595 62.2125 64.9797 62.0616 64.5205L62.0735 64.554L67.5736 59.0144C69.3663 60.3921 71.4474 61.3399 73.6585 61.7857C75.8697 62.2315 78.1526 62.1636 80.3337 61.587C82.5148 61.0105 84.5367 59.9405 86.2455 58.4585C87.9542 56.9766 89.305 55.1216 90.1949 53.0348C91.0848 50.9479 91.4904 48.6842 91.381 46.4157C91.2715 44.1472 90.6498 41.9337 89.5632 39.9436C88.4766 37.9535 86.9537 36.2392 85.1103 34.931C83.2669 33.6229 81.1516 32.7555 78.9252 32.3946L78.8397 32.3827H78.854ZM76.5656 54.8041C75.0615 54.7999 73.5922 54.3468 72.3436 53.502C71.0949 52.6573 70.1228 51.4589 69.55 50.058C68.9772 48.6572 68.8294 47.1168 69.1252 45.6314C69.4211 44.146 70.1474 42.7822 71.2123 41.7123C72.2773 40.6424 73.6331 39.9143 75.1087 39.62C76.5842 39.3257 78.1132 39.4784 79.5027 40.0588C80.8921 40.6392 82.0796 41.6213 82.9152 42.8811C83.7508 44.1408 84.197 45.6217 84.1974 47.1366V47.1414C84.1978 48.1484 84.0011 49.1456 83.6186 50.076C83.2361 51.0064 82.6754 51.8518 81.9684 52.5639C81.2614 53.2759 80.4221 53.8407 79.4983 54.2259C78.5745 54.6111 77.5844 54.8092 76.5846 54.8089L76.5656 54.8041Z" fill="#FF7A59"/>
</svg>
